# xmcd
#
# Track frame offsets:
#  150
#  18006
#  34215
#  47130
#  59476
#  79805
#  91040
#  106125
#  121230
#  137735
#  151262
#  163892
#  181725
#  198155
#  215750
#  230822
#  248184
#  261824
#  275607
#
# Disc length: 3824 seconds
#
# Revision: 0
# Processed by: cddbd v1.5.1PL2 Copyright (c) Steve Scherf et al.
# Submitted via: Collectorz.com_Music_Collector 6.9
#
DISCID=050eee13
DTITLE=Various Artist - Blacks 'n Blues Vol. 2 - After The Lights Go Down Low
DYEAR=1900
DGENRE=Blues
TTITLE0=That's What The Blues Is All About
TTITLE1=If Lovin' You Is Wrong (I Don't Want To Be Right)
TTITLE2=Just Enough To Keep Me Hanging On
TTITLE3=You Only Have Yourself To Blame
TTITLE4=I Believe In You
TTITLE5=Steal Away
TTITLE6=When Something Is Wrong With My Baby
TTITLE7=When Things Go Wrong With You, It Hurts Me Too
TTITLE8=Cheatin' In The Next Room
TTITLE9=I've Been Loving You Too Long
TTITLE10=My Babe
TTITLE11=Why I Sing The Blues
TTITLE12=If You Think You're Lonely Now
TTITLE13=Rainy Night In Georgia
TTITLE14=Stormy Monday
TTITLE15=Let's Straighten It Out
TTITLE16=Never Gonna Give You Up
TTITLE17=Trust In Me
TTITLE18=I'll Take Care Of You
EXTD=
EXTT0=
EXTT1=
EXTT2=
EXTT3=
EXTT4=
EXTT5=
EXTT6=
EXTT7=
EXTT8=
EXTT9=
EXTT10=
EXTT11=
EXTT12=
EXTT13=
EXTT14=
EXTT15=
EXTT16=
EXTT17=
EXTT18=
PLAYORDER=
